HIERARCHY
ROOT hip
{
  OFFSET 0 0 0
  CHANNELS 6 Xposition Yposition Zposition Zrotation Yrotation Xrotation
  JOINT abdomen
  {
    OFFSET 0 20.6881 -0.73152
    CHANNELS 3 Zrotation Xrotation Yrotation
    JOINT chest
    {
      OFFSET 0 11.7043 -0.48768
      CHANNELS 3 Zrotation Xrotation Yrotation
      JOINT neck
      {
        OFFSET 0 22.1894 -2.19456
        CHANNELS 3 Zrotation Xrotation Yrotation
        JOINT head
        {
          OFFSET -0.24384 7.07133 1.2192
          CHANNELS 3 Zrotation Xrotation Yrotation
          JOINT leftEye
          {
            OFFSET 4.14528 8.04674 8.04672
            CHANNELS 3 Zrotation Xrotation Yrotation
            End Site
            {
              OFFSET 1 0 0
            }
          }
          JOINT rightEye
          {
            OFFSET -3.6576 8.04674 8.04672
            CHANNELS 3 Zrotation Xrotation Yrotation
            End Site
            {
              OFFSET 1 0 0
            }
          }
        }
      }
      JOINT rCollar
      {
        OFFSET -2.68224 19.2634 -4.8768
        CHANNELS 3 Zrotation Xrotation Yrotation
        JOINT rShldr
        {
          OFFSET -8.77824 -1.95073 1.46304
          CHANNELS 3 Zrotation Xrotation Yrotation
          JOINT rForeArm
          {
            OFFSET -28.1742 -1.7115 0.48768
            CHANNELS 3 Zrotation Xrotation Yrotation
            JOINT rHand
            {
              OFFSET -22.5879 0.773209 7.07136
              CHANNELS 3 Zrotation Xrotation Yrotation
              JOINT rThumb1
              {
                OFFSET -1.2192 -0.487915 3.41376
                CHANNELS 3 Zrotation Xrotation Yrotation
                JOINT rThumb2
                {
                  OFFSET -3.37035 -0.52449 3.41376
                  CHANNELS 3 Zrotation Xrotation Yrotation
                  End Site
                  {
                    OFFSET -1.78271 -1.18214 1.43049
                  }
                }
              }
              JOINT rIndex1
              {
                OFFSET -7.75947 0.938293 5.60832
                CHANNELS 3 Zrotation Xrotation Yrotation
                JOINT rIndex2
                {
                  OFFSET -2.54057 -0.884171 1.56538
                  CHANNELS 3 Zrotation Xrotation Yrotation
                  End Site
                  {
                    OFFSET -1.62519 -0.234802 1.16502
                  }
                }
              }
              JOINT rMid1
              {
                OFFSET -8.24714 1.18213 3.41376
                CHANNELS 3 Zrotation Xrotation Yrotation
                JOINT rMid2
                {
                  OFFSET -3.10165 -0.590103 1.0647
                  CHANNELS 3 Zrotation Xrotation Yrotation
                  End Site
                  {
                    OFFSET -2.48547 -0.328903 0.83742
                  }
                }
              }
              JOINT rRing1
              {
                OFFSET -8.82822 0.546677 1.51678
                CHANNELS 3 Zrotation Xrotation Yrotation
                JOINT rRing2
                {
                  OFFSET -2.60934 -0.819778 -0.0198488
                  CHANNELS 3 Zrotation Xrotation Yrotation
                  End Site
                  {
                    OFFSET -2.33842 -0.294052 0.168128
                  }
                }
              }
              JOINT rPinky1
              {
                OFFSET -8.27202 -0.0477905 -0.4584
                CHANNELS 3 Zrotation Xrotation Yrotation
                JOINT rPinky2
                {
                  OFFSET -1.82734 -0.647385 -0.700984
                  CHANNELS 3 Zrotation Xrotation Yrotation
                  End Site
                  {
                    OFFSET -1.69225 -0.51767 -0.607171
                  }
                }
              }
            }
          }
        }
      }
      JOINT lCollar
      {
        OFFSET 2.68224 19.2634 -4.8768
        CHANNELS 3 Zrotation Xrotation Yrotation
        JOINT lShldr
        {
          OFFSET 8.77824 -1.95073 1.46304
          CHANNELS 3 Zrotation Xrotation Yrotation
          JOINT lForeArm
          {
            OFFSET 28.1742 -1.7115 0.48768
            CHANNELS 3 Zrotation Xrotation Yrotation
            JOINT lHand
            {
              OFFSET 22.5879 0.773209 7.07136
              CHANNELS 3 Zrotation Xrotation Yrotation
              JOINT lThumb1
              {
                OFFSET 1.2192 -0.487915 3.41376
                CHANNELS 3 Zrotation Xrotation Yrotation
                JOINT lThumb2
                {
                  OFFSET 3.37035 -0.52449 3.41376
                  CHANNELS 3 Zrotation Xrotation Yrotation
                  End Site
                  {
                    OFFSET 1.78271 -1.18214 1.43049
                  }
                }
              }
              JOINT lIndex1
              {
                OFFSET 7.75947 0.938293 5.60832
                CHANNELS 3 Zrotation Xrotation Yrotation
                JOINT lIndex2
                {
                  OFFSET 2.54057 -0.884171 1.56538
                  CHANNELS 3 Zrotation Xrotation Yrotation
                  End Site
                  {
                    OFFSET 1.62519 -0.234802 1.16502
                  }
                }
              }
              JOINT lMid1
              {
                OFFSET 8.24714 1.18213 3.41376
                CHANNELS 3 Zrotation Xrotation Yrotation
                JOINT lMid2
                {
                  OFFSET 3.10165 -0.590103 1.0647
                  CHANNELS 3 Zrotation Xrotation Yrotation
                  End Site
                  {
                    OFFSET 2.48547 -0.328903 0.83742
                  }
                }
              }
              JOINT lRing1
              {
                OFFSET 8.82822 0.546677 1.51678
                CHANNELS 3 Zrotation Xrotation Yrotation
                JOINT lRing2
                {
                  OFFSET 2.60934 -0.819778 -0.0198488
                  CHANNELS 3 Zrotation Xrotation Yrotation
                  End Site
                  {
                    OFFSET 2.33842 -0.294052 0.168128
                  }
                }
              }
              JOINT lPinky1
              {
                OFFSET 8.27202 -0.0477905 -0.4584
                CHANNELS 3 Zrotation Xrotation Yrotation
                JOINT lPinky2
                {
                  OFFSET 1.82734 -0.647385 -0.700984
                  CHANNELS 3 Zrotation Xrotation Yrotation
                  End Site
                  {
                    OFFSET 1.69225 -0.51767 -0.607171
                  }
                }
              }
            }
          }
        }
      }
    }
  }
  JOINT rButtock
  {
    OFFSET -8.77824 4.35084 1.2192
    CHANNELS 3 Zrotation Xrotation Yrotation
    JOINT rThigh
    {
      OFFSET 0 -1.70687 -2.19456
      CHANNELS 3 Zrotation Xrotation Yrotation
      JOINT rShin
      {
        OFFSET 0 -36.8199 0.73152
        CHANNELS 3 Zrotation Xrotation Yrotation
        JOINT rFoot
        {
          OFFSET 0.73152 -45.1104 -5.12064
          CHANNELS 3 Zrotation Xrotation Yrotation
          End Site
          {
            OFFSET -1.1221 -3.69964 12.103
          }
        }
      }
    }
  }
  JOINT lButtock
  {
    OFFSET 8.77824 4.35084 1.2192
    CHANNELS 3 Zrotation Xrotation Yrotation
    JOINT lThigh
    {
      OFFSET 0 -1.70687 -2.19456
      CHANNELS 3 Zrotation Xrotation Yrotation
      JOINT lShin
      {
        OFFSET 0 -36.8199 0.73152
        CHANNELS 3 Zrotation Xrotation Yrotation
        JOINT lFoot
        {
          OFFSET -0.73152 -45.1104 -5.12064
          CHANNELS 3 Zrotation Xrotation Yrotation
          End Site
          {
            OFFSET 1.1221 -3.69964 12.103
          }
        }
      }
    }
  }
}
MOTION
Frames:	9
Frame Time:	0.03333
0.0 0.0 0.0 0.0 0.0 0.0 0.0 0.0 0.0 0.0 0.0 0.0 0.0 0.0 0.0 0.0 0.0 0.0 0.0 0.0 0.0 0.0 0.0 0.0 0.0 0.0 0.0 0.0 0.0 0.0 0.0 0.0 0.0 0.0 0.0 0.0 0.0 0.0 0.0 0.0 0.0 0.0 0.0 0.0 0.0 0.0 0.0 0.0 0.0 0.0 0.0 0.0 0.0 0.0 0.0 0.0 0.0 0.0 0.0 0.0 0.0 0.0 0.0 0.0 0.0 0.0 0.0 0.0 0.0 0.0 0.0 0.0 0.0 0.0 0.0 0.0 0.0 0.0 0.0 0.0 0.0 0.0 0.0 0.0 0.0 0.0 0.0 0.0 0.0 0.0 0.0 0.0 0.0 0.0 0.0 0.0 0.0 0.0 0.0 0.0 0.0 0.0 0.0 0.0 0.0 0.0 0.0 0.0 0.0 0.0 0.0 0.0 0.0 0.0 0.0 0.0 0.0 0.0 0.0 0.0 0.0 0.0 0.0 0.0 0.0 0.0 0.0 0.0 0.0 0.0 0.0 0.0
0.29610000000000003 68.4173 -0.1302 -0.063689 -26.024685 -1.580663 -0.610072 0.015544 145.259295 9.997409 4.283346 -59.953745 -10.726895 -15.429379 -64.629566 29.156071 50.488855 137.862466 108.933713 -4.410254 6.172462 55.827978 10.885727 20.39146 60.396456 42.874675 15.566743 94.278731 -80.503932 79.594318 -169.091731 13.646868 -21.344667 20.898264 -46.673738 10.375653 -8.430603 -22.121982 -31.855584 22.013343 -33.860304 39.460676 -116.33491 -51.095885 -157.581659 58.771121 2.874777 -14.967709 -143.383539 26.447219 89.071361 -146.29367 -41.223756 98.963667 81.134124 47.778984 -102.704223 -37.621562 46.748927 -156.624762 4.89597 -41.128162 -107.486231 -80.795607 78.802186 15.850834 8.304773 67.703736 -89.355095 -11.057002 -44.381311 -8.913892 171.674305 8.490626 10.995601 -171.370367 -16.346189 -141.384264 175.803799 -7.776132 -118.604121 -179.45932 66.58951 63.880775 60.629301 71.115843 -89.949883 -124.236331 -32.648367 170.517278 -58.313633 -75.666577 -40.004704 -171.130222 12.434068 -149.752952 -88.091969 0.848273 84.62311 -109.191521 32.063976 43.214006 -31.605378 -16.766989 160.372015 155.900135 -1.869558 -178.392263 26.033702 -39.2146 35.447782 -1.017748 48.609561 1.356487 -7.00406 -4.021063 -61.979983 -67.812796 54.126057 81.331049 31.742885 44.983187 139.325641 1.543583 52.236802 0.0 6.646975 1.149617 96.751643 -74.928065 39.777114 78.985987
1.1645 69.3258 0.0936 -162.147264 84.258755 -155.753361 -2.233772 0.613634 -94.239857 8.822456 1.041049 100.04395 -7.32921 10.452861 -58.14628 20.746027 -0.009316 33.811857 8.509294 2.868193 37.197857 4.039053 -0.122962 -3.48601 -159.188315 -19.30824 172.569708 -24.685163 86.648436 53.87863 76.291484 -6.722291 27.861338 -56.770732 69.938575 25.860396 -171.971272 4.006793 75.782055 -156.647127 -30.662927 63.067132 -175.782182 -24.836907 107.920776 159.165224 -22.871484 44.453887 -158.146421 31.654955 128.751426 2.662686 -63.918189 -0.690198 41.897965 -73.091211 37.59596 -21.907939 -58.22399 -42.091691 -52.676006 64.31423 98.745059 -91.146162 0.351163 -66.842799 119.649221 49.428955 -127.879542 2.834068 6.251776 -16.063375 98.879629 2.403987 22.96143 -37.689159 -63.368747 -25.087665 -77.857199 -51.441159 -30.539176 134.537035 -0.170766 -92.297531 38.336535 44.200706 -34.553428 169.964079 -76.715239 -137.350655 157.280362 -11.971217 -129.573245 -9.21123 10.337978 -16.508642 -22.921399 -2.488225 -23.064281 -154.935743 20.80306 150.847421 -0.374589 -37.905313 -1.875198 -168.474263 50.51126 116.089511 -105.104314 65.353629 -42.036503 135.835758 19.466631 -0.0 -28.978957 56.822137 -118.123516 -123.724881 56.537549 -161.159642 0.19921 -3.236144 3.524433 9.721631 -17.009777 30.355177 28.447922 52.045133 72.372637 -1.814922 51.446039 -89.164719
2.9455 68.12519999999999 0.4613 -155.770626 77.430966 -148.728552 3.899933 0.98496 104.152421 -7.678401 6.494901 -92.942038 5.667082 19.444645 -99.476188 34.427532 -1.350263 68.229069 18.472553 7.976042 46.411945 -11.452096 -0.583113 5.810352 -13.447658 -51.515845 -33.089693 -130.119274 36.595728 133.978327 13.606366 53.378656 -81.501693 -174.346167 10.610294 127.327681 -168.624993 14.752035 92.822646 -127.318922 14.137978 54.9322 -135.909491 17.419036 59.995663 12.31774 43.620685 65.403778 -157.632438 -7.286761 139.159418 -63.361099 -79.60028 -96.457693 -9.660198 -15.718901 56.822059 -56.721713 -2.178767 -85.674699 11.146346 44.029429 17.793622 -47.510371 5.179775 9.359996 16.091451 41.68429 -21.246725 -0.318979 -0.385985 -17.217421 158.358745 15.134575 -36.338988 -162.825674 -32.862632 -132.736469 157.889278 -8.544545 -88.092678 33.97923 10.141647 -31.277105 -11.687653 -15.432983 -21.444965 27.469258 79.953356 11.638839 9.595888 -3.901094 -26.536986 134.063177 -60.76845 -164.087769 -8.30825 -26.808492 -5.42086 125.277471 60.42736 -117.387797 -35.739482 2.197 -17.845327 108.675406 -22.153024 37.895069 -65.246013 47.399989 -67.904953 116.125511 16.493526 -123.949362 -54.339343 -37.952393 -116.521694 14.218392 30.321609 -124.189492 86.439432 29.481289 49.916796 -83.259956 24.153513 -92.768546 -51.904109 6.864042 68.312273 -126.6489 -35.356778 -5.559089
3.9665 68.0462 0.9431 -156.017835 77.245156 -148.86379 -0.002838 -0.335854 92.832984 -9.97413 1.137039 -87.021337 8.064947 11.714732 -61.380211 25.624948 -18.861683 40.74584 -4.390778 -1.299951 32.970323 -33.179767 2.009449 -6.737827 -2.08843 25.30335 6.539052 -21.440004 42.16049 18.481478 -176.057074 -62.018238 -141.723455 -3.603083 20.988958 -7.799342 -1.268516 -55.281639 -2.86195 -6.176794 -57.167697 -85.62565 149.626492 -59.845685 124.904742 -170.645212 -45.051594 150.578693 -56.642058 56.284807 25.335619 -174.937081 -9.691446 99.312907 -157.546832 -15.047166 135.677165 56.647699 16.014095 71.254515 8.131895 0.16026 -2.835801 -53.052483 12.667512 62.669914 79.861811 66.197964 -83.800228 172.607364 -45.877247 -170.339782 177.108658 -66.537259 -48.331327 -166.106301 -8.626461 -142.547663 115.037448 38.539092 -78.41045 -8.300539 -29.741705 0.485282 155.945988 -5.71289 -110.645006 -79.383564 -54.665767 -6.951786 173.607503 -26.437761 -163.798469 -175.760883 27.898358 175.031252 -23.802398 -0.940427 -8.030864 32.099767 47.391719 5.599904 159.783004 0.753436 177.540763 72.615812 59.37347 -124.227545 -34.000245 7.580421 -32.378136 62.507072 -36.136164 180.0 52.467022 -58.391429 132.878178 28.124879 -67.618523 131.308187 -3.921355 2.031818 -1.994891 22.129516 -23.399665 69.820301 40.062015 44.099648 -121.288658 -9.972822 -64.650083 66.749631
4.265 68.001 2.0753 -170.698531 76.193796 -163.354588 -4.169325 4.161281 -0.0 2.475342 -17.502945 -1.722688 -2.46207 20.23624 -127.701761 20.526563 31.592051 109.981731 -31.170392 -7.932184 27.917964 -23.689571 -4.632982 21.834466 -147.173972 21.509436 153.322832 16.657063 39.771397 -7.462036 38.483062 -25.528562 -51.073159 178.082696 4.612678 139.030037 -16.019079 -26.106895 -8.112606 -21.16611 34.682856 31.209614 -59.186 43.734357 24.838152 -162.727255 -26.865604 81.536644 -8.724006 1.869065 -9.020215 -26.572712 44.241903 52.88604 96.073206 -71.904544 71.069255 124.305351 -53.334714 163.08454 -108.551598 -42.797524 -107.822281 -76.973663 -72.481693 -91.203625 0.079839 -32.673485 14.860709 123.553476 65.552568 -134.076223 62.020734 -43.643145 -47.996302 -11.796622 -31.025139 -4.565453 -149.755244 -57.081834 -78.322836 136.172054 7.496254 -86.663744 166.838175 -41.920411 -130.522403 149.589775 -47.691213 -110.070525 8.286317 33.235817 -2.589821 1.375881 -15.187373 -26.538047 119.456177 -5.298386 -171.137408 -63.883056 16.586766 -25.521689 158.404409 7.252854 -160.757268 177.978522 -30.077382 -166.146133 -0.32471 1.848192 9.966442 -35.664936 -61.038553 140.640815 -83.601218 -79.60582 -72.409006 30.343587 -1.030463 165.231883 19.742807 -7.61897 16.840906 -10.590372 -9.583445 -114.269024 -44.909427 -31.57506 51.110103 176.692509 -36.35053 -74.187024
4.4665 68.9126 3.691 -178.9365 79.779725 -172.45789 -9.696986 7.747534 -0.0 4.521576 -21.252382 4.949014 -4.862065 21.144552 -111.067379 23.821021 25.729655 92.684776 -20.601791 -6.399776 34.196574 -20.059236 -1.341649 7.575227 -156.14538 -2.90931 164.472404 54.274879 89.393487 -40.594214 47.506379 20.699972 10.439172 -72.788578 72.406697 51.120865 -177.490088 6.955536 73.849516 -141.952938 -6.821734 52.42707 -179.959821 -49.605668 126.810453 -172.126514 -4.679348 132.319716 -168.699824 -5.923458 146.419003 86.446591 -85.703762 57.209556 21.883235 0.201668 5.631548 -155.520798 58.795042 144.576007 -69.483517 -52.377737 -82.015166 -34.256376 -58.734268 -25.498143 152.440997 -46.182937 -178.967915 -17.625452 1.120605 -5.999356 -83.349088 -32.042205 95.766311 150.582123 58.860016 -133.025321 15.835366 42.187347 1.386642 9.591691 25.64791 -11.881445 22.964567 45.451842 -10.299196 -118.548968 -33.791051 -102.210007 133.923139 82.900815 -132.210919 141.961791 66.313425 -99.977802 55.903377 75.97937 -78.480036 37.966232 -42.739845 76.027018 21.879281 54.655075 -18.384921 119.554147 -78.471016 138.224078 -10.988192 5.290442 15.416835 -37.65376 -67.203634 85.783265 90.528085 -50.584969 128.142492 -36.239723 57.848806 125.96481 6.168793 -19.503559 -5.455342 3.167199 -1.455984 65.335914 41.507935 36.673523 -2.367701 14.828939 -29.559582 -46.473637
4.6406 70.9867 5.2547999999999995 172.20188 82.120962 175.971709 -11.927175 9.093102 -126.803497 13.811983 15.642236 137.243945 15.809832 9.796596 63.600898 -19.142929 1.080122 -90.021454 1.702474 0.649694 41.773062 -8.095851 -0.247568 3.497258 -4.233276 26.739755 -3.412364 -151.497917 29.180753 153.931953 -176.036842 19.152957 -137.284256 -12.471198 23.765486 -0.321846 -4.139918 -14.391532 19.859505 -23.727886 62.235763 26.458157 -75.602132 40.355311 65.913607 -64.24904 -76.37223 -110.517726 -170.939272 -6.238297 145.496478 -27.972847 65.796522 15.928731 -121.749918 4.438525 -173.853284 156.080806 47.655716 -100.12858 -108.590438 -5.28328 -132.058976 -122.62987 39.332421 -155.436205 151.644865 7.685764 -154.240051 161.292893 -15.228521 -173.629738 -168.277706 -11.936147 -35.243805 -179.088351 9.125046 -152.086661 172.651629 -32.090639 -104.854499 157.649678 2.970162 -58.511506 72.196315 59.781429 -63.76082 94.038014 62.112737 -22.399642 46.898088 -76.607784 57.189638 -16.189628 -0.907233 30.056076 -141.421052 72.70898 144.525509 172.581806 -33.502599 177.113376 8.834116 77.737792 -16.745104 149.813767 34.502513 168.615256 -147.729473 52.658713 -38.458192 162.595805 -3.296264 88.557892 86.774167 -4.43117 179.35252 125.392824 12.57379 -58.017635 -1.982402 -14.279969 -0.0 12.059639 -6.445541 50.555909 42.658988 45.583936 58.95834 -96.049365 75.843019 -4.750352
5.0595 72.677 6.306399999999999 166.186404 81.198973 168.695158 -16.868684 13.345853 3.301139 6.578196 -23.453253 13.079949 20.808183 15.159797 99.781086 -17.789116 21.424954 -131.890859 13.373007 5.691424 45.954407 1.71123 -0.009241 -0.618758 -5.641347 50.46341 -0.014161 40.384759 -57.272018 31.413387 173.226668 12.399183 98.71033 178.97258 -9.262734 144.122718 79.326252 -34.694427 44.81323 -143.831959 -37.378247 -168.442868 -33.309232 44.772909 36.684212 -27.444813 67.023911 -48.544028 -4.096766 -19.775958 -6.138824 179.603427 -56.787034 129.298203 23.159127 11.647021 -12.945631 -109.789857 20.152703 69.496437 40.420507 35.012997 0.576209 -53.297339 -30.349059 -29.798221 -10.329666 -30.343987 -8.853186 154.544746 53.770629 -159.688248 -90.252362 68.933823 -126.811907 179.012827 18.532962 -150.681768 76.00053 51.327868 -47.841636 11.78854 15.896506 -31.702415 1.101298 19.865579 1.181347 -23.932235 -39.34873 -24.953616 60.680234 51.095083 -20.133959 147.00208 -26.097317 -102.198206 -137.151116 57.364134 144.136219 35.069562 -1.63655 -1.503752 133.191959 -51.17582 108.072025 -26.38591 59.323762 2.932246 -60.650868 11.402105 -12.840191 96.780636 -48.436231 -84.916173 -86.407672 -43.432978 5.307127 -20.149041 -7.853931 73.021588 -94.121747 47.120468 -68.499619 139.630084 54.716963 -180.0 25.448796 -52.433765 -69.005427 -154.38001 13.732459 48.197733
